<svg xmlns="http://www.w3.org/2000/svg" xmlns:xlink="http://www.w3.org/1999/xlink" fill="none">

<symbol id="setting">
  <path fill-rule="evenodd" clip-rule="evenodd" d="M6.84137 3.162L6.30056 3.34946C5.73347 3.54604 5.21031 3.83854 4.75067 4.20815L4.32319 4.5519L2.30451 3.86901L1.57593 5.13095L3.09017 6.46171L2.95043 7.04743C2.85799 7.43487 2.80881 7.84007 2.80881 8.25806C2.80881 8.54577 2.83211 8.8273 2.87672 9.10107L2.96579 9.64756L1.57592 10.869L2.3045 12.131L3.95735 11.5718L4.39549 11.9948C4.95617 12.5362 5.63721 12.9517 6.39322 13.1978L6.94955 13.3789L7.27377 15H8.73094L9.05516 13.3789L9.6115 13.1978C10.3675 12.9517 11.0486 12.5362 11.6092 11.9948L12.0474 11.5718L13.7002 12.131L14.4288 10.869L13.0389 9.64754L13.128 9.10105C13.1726 8.82729 13.1959 8.54576 13.1959 8.25806C13.1959 7.84008 13.1467 7.43489 13.0543 7.04745L12.9145 6.46173L14.4288 5.13097L13.7002 3.86902L11.6815 4.55192L11.2541 4.20816C10.7944 3.83855 10.2713 3.54604 9.70415 3.34946L9.16334 3.162L8.73094 1H7.27377L6.84137 3.162ZM9.55074 0H6.45397L5.97305 2.40462C5.29562 2.63944 4.67159 2.98854 4.12402 3.42886L1.84839 2.65904L0.300002 5.34092L1.97773 6.81536C1.86728 7.27826 1.80881 7.76133 1.80881 8.25806C1.80881 8.59986 1.83649 8.93519 1.88975 9.26193L0.299988 10.6591L1.84837 13.3409L3.7009 12.7143C4.36849 13.3588 5.18053 13.8547 6.08371 14.1487L6.45397 16H9.55074L9.921 14.1487C10.8242 13.8547 11.6362 13.3588 12.3038 12.7142L14.1564 13.3409L15.7047 10.659L14.115 9.2619C14.1682 8.93517 14.1959 8.59985 14.1959 8.25806C14.1959 7.76134 14.1374 7.27828 14.027 6.81538L15.7047 5.34094L14.1563 2.65905L11.8807 3.42887C11.3331 2.98855 10.7091 2.63944 10.0317 2.40462L9.55074 0ZM11.49 8.25995C11.49 10.1929 9.92297 11.76 7.98997 11.76C6.05697 11.76 4.48997 10.1929 4.48997 8.25995C4.48997 6.32695 6.05697 4.75995 7.98997 4.75995C9.92297 4.75995 11.49 6.32695 11.49 8.25995ZM7.98997 10.76C9.37068 10.76 10.49 9.64066 10.49 8.25995C10.49 6.87924 9.37068 5.75995 7.98997 5.75995C6.60926 5.75995 5.48997 6.87924 5.48997 8.25995C5.48997 9.64066 6.60926 10.76 7.98997 10.76Z" fill="currentColor"/>
</symbol>

<symbol id="filter">
  <path d="M15 2H1V3H15V2Z" fill="currentColor"/>
  <path d="M13.25 5.5H2.75V6.5H13.25V5.5Z" fill="currentColor"/>
  <path d="M4.5 9.5H11.5V10.5H4.5V9.5Z" fill="currentColor"/>
  <path d="M9.75 13H6.25V14H9.75V13Z" fill="currentColor"/>
</symbol>

<symbol id="user">
  <path fill-rule="evenodd" clip-rule="evenodd" d="M8 1C6.34315 1 5 2.34315 5 4C5 5.65685 6.34315 7 8 7C9.65685 7 11 5.65685 11 4C11 2.34315 9.65685 1 8 1ZM6 4C6 2.89543 6.89543 2 8 2C9.10457 2 10 2.89543 10 4C10 5.10457 9.10457 6 8 6C6.89543 6 6 5.10457 6 4Z" fill="currentColor"/>
  <path d="M3 13.7308C3 12.2499 3.53343 11.2189 4.38261 10.5456C5.24878 9.85889 6.50061 9.5 8 9.5C9.49939 9.5 10.7512 9.85889 11.6174 10.5456C12.4666 11.2189 13 12.2499 13 13.7308V15H14V13.7308C14 11.9809 13.3541 10.6465 12.2387 9.76205C11.1402 8.89111 9.64203 8.5 8 8.5C6.35797 8.5 4.85981 8.89111 3.76133 9.76205C2.64586 10.6465 2 11.9809 2 13.7308V15H3V13.7308Z" fill="currentColor"/>
</symbol>

<symbol id="delete">
  <path d="M6 0V1H2V2H14V1H10V0H6Z" fill="currentColor"/>
  <path d="M4 4V14.5C4 14.7761 4.22386 15 4.5 15H11.5C11.7761 15 12 14.7761 12 14.5V4H13V14.5C13 15.3284 12.3284 16 11.5 16H4.5C3.67157 16 3 15.3284 3 14.5V4H4Z" fill="currentColor"/>
  <path d="M6 13V4H7V13H6Z" fill="currentColor"/>
  <path d="M9 4V13H10V4H9Z" fill="currentColor"/>
</symbol>

<symbol id="httpRequest">
  <path d="m12.654.046-.707.707L13.593 2.4H0v1h16.007L12.654.046ZM-.007 12.599l3.353 3.353.707-.707L2.407 13.6H16v-1H-.007ZM.011 11.2h.977V8.478h2.327V11.2h.98V4.927h-.98V7.64H.988V4.927H.01V11.2ZM4.784 5.768H5.9V11.2h.973V5.768h.92v-.84h-3.01v.84ZM9.283 5.768h-.916v-.84h3.01v.84h-1.12V11.2h-.974V5.768Z" fill="currentColor"/>
  <path fill-rule="evenodd" d="M11.87 11.2h.976V8.924h.927c1.501 0 2.244-.807 2.244-2.001 0-1.192-.736-1.996-2.24-1.996h-1.908V11.2Zm.976-3.104V5.765h.826c.967 0 1.362.424 1.362 1.158 0 .733-.395 1.173-1.35 1.173h-.838Z" fill="currentColor"/>
</symbol>

<symbol id="error">
  <path d="M8 12C8.55228 12 9 11.5523 9 11C9 10.4477 8.55228 10 8 10C7.44772 10 7 10.4477 7 11C7 11.5523 7.44772 12 8 12Z" fill="currentColor"/>
  <path d="M8 4C8.53541 4 8.95377 4.46229 8.9005 4.99504L8.54975 8.50248C8.52151 8.78492 8.28384 9 8 9C7.71616 9 7.47849 8.78492 7.45025 8.50248L7.0995 4.99504C7.04623 4.46228 7.46459 4 8 4Z" fill="currentColor"/>
  <path fill-rule="evenodd" clip-rule="evenodd" d="M8 16C12.4183 16 16 12.4183 16 8C16 3.58172 12.4183 0 8 0C3.58172 0 0 3.58172 0 8C0 12.4183 3.58172 16 8 16ZM8 15C11.866 15 15 11.866 15 8C15 4.13401 11.866 1 8 1C4.13401 1 1 4.13401 1 8C1 11.866 4.13401 15 8 15Z" fill="currentColor"/>
</symbol>

<symbol id="reorder">
  <circle cx="5.5" cy="2.5" r="1.5" fill="currentColor"/>
  <circle cx="5.5" cy="8" r="1.5" fill="currentColor"/>
  <circle cx="5.5" cy="13.5" r="1.5" fill="currentColor"/>
  <circle cx="10.5" cy="2.5" r="1.5" fill="currentColor"/>
  <circle cx="10.5" cy="8" r="1.5" fill="currentColor"/>
  <circle cx="10.5" cy="13.5" r="1.5" fill="currentColor"/>
</symbol>

<symbol id="delete">
  <path d="M6 0V1H2V2H14V1H10V0H6Z" fill="currentColor"/>
  <path d="M4 4V14.5C4 14.7761 4.22386 15 4.5 15H11.5C11.7761 15 12 14.7761 12 14.5V4H13V14.5C13 15.3284 12.3284 16 11.5 16H4.5C3.67157 16 3 15.3284 3 14.5V4H4Z" fill="currentColor"/>
  <path d="M6 13V4H7V13H6Z" fill="currentColor"/>
  <path d="M9 4V13H10V4H9Z" fill="currentColor"/>
</symbol>

<symbol id="connectionSecure">
  <path fill-rule="evenodd" clip-rule="evenodd" d="M7 14C7.25621 14 7.61626 13.8497 8 13.4043V14.9291C7.6734 14.9758 7.33952 15 7 15C3.13401 15 0 11.866 0 8C0 4.13401 3.13401 1 7 1C10.1952 1 12.8904 3.14083 13.7295 6.06637C13.493 6.02278 13.2491 6 13 6H12.6586C12.5319 5.64144 12.372 5.29852 12.1827 4.97492C11.6348 5.31335 11.009 5.59672 10.326 5.81425C10.3539 5.98431 10.3787 6.15725 10.4001 6.33279C10.0573 6.48255 9.73957 6.67897 9.45489 6.91402C9.43054 6.62449 9.39671 6.34289 9.3543 6.07052C8.61147 6.22804 7.81942 6.31246 6.99994 6.31246C6.18051 6.31246 5.3885 6.22805 4.64569 6.07054C4.55187 6.67322 4.5 7.32109 4.5 8C4.5 8.67895 4.55187 9.32686 4.64571 9.92958C5.38851 9.77207 6.18051 9.68766 6.99994 9.68766C7.34156 9.68766 7.67841 9.70233 8.00891 9.73085C8.003 9.8198 8 9.90955 8 10V10.734C7.67457 10.7035 7.34064 10.6877 6.99994 10.6877C6.24147 10.6877 5.51656 10.7664 4.84427 10.9097C4.99643 11.5114 5.19259 12.0486 5.41955 12.5025C5.99978 13.663 6.61633 14 7 14ZM4.84424 5.09045C4.9964 4.4887 5.19258 3.95142 5.41955 3.49747C5.99978 2.33702 6.61633 2 7 2C7.38367 2 8.00022 2.33702 8.58045 3.49747C8.80742 3.95141 9.00359 4.48869 9.15576 5.09042C8.48343 5.2337 7.75847 5.31246 6.99994 5.31246C6.24146 5.31246 5.51654 5.23371 4.84424 5.09045ZM11.6064 4.15516C11.1699 4.41889 10.6703 4.64698 10.1212 4.82928C9.87367 3.85659 9.51582 3.01503 9.0806 2.37055C10.0724 2.73725 10.9408 3.35856 11.6064 4.15516ZM3.87879 4.82932C3.32965 4.64702 2.83005 4.41893 2.39356 4.1552C3.05918 3.35859 3.92757 2.73726 4.9194 2.37055C4.48418 3.01504 4.12632 3.85661 3.87879 4.82932ZM1.81725 4.97497C2.36521 5.3134 2.99104 5.59676 3.674 5.81428C3.56108 6.502 3.5 7.23673 3.5 8C3.5 8.76331 3.56109 9.49809 3.67402 10.1858C2.99107 10.4033 2.36525 10.6867 1.81731 11.0251C1.29776 10.1369 1 9.10325 1 8C1 6.89679 1.29774 5.86312 1.81725 4.97497ZM4.9194 13.6294C3.9276 13.2628 3.05923 12.6415 2.39363 11.8449C2.83011 11.5812 3.32969 11.3531 3.87882 11.1708C4.12634 12.1435 4.48419 12.985 4.9194 13.6294Z" fill="currentColor"/>
  <path d="M12.75 12.4331C12.8995 12.3467 13 12.1851 13 12C13 11.7239 12.7761 11.5 12.5 11.5C12.2239 11.5 12 11.7239 12 12C12 12.1851 12.1005 12.3467 12.25 12.4331V13.5H12.75V12.4331Z" fill="currentColor"/>
  <path fill-rule="evenodd" clip-rule="evenodd" d="M10.5 10H10C9.44772 10 9 10.4477 9 11V14C9 14.5523 9.44771 15 10 15H15C15.5523 15 16 14.5523 16 14V11C16 10.4477 15.5523 10 15 10H14.5L14.5 8.98224C14.5003 8.77423 14.5009 8.28481 14.245 7.84378C13.9502 7.33553 13.3895 7 12.5 7C11.6105 7 11.0499 7.33553 10.755 7.84378C10.4992 8.28481 10.4998 8.77423 10.5 8.98224L10.5 10ZM11.62 8.34556C11.5085 8.53789 11.5 8.78247 11.5 9V10H13.5V9C13.5 8.78247 13.4916 8.53789 13.38 8.34556C13.2999 8.20736 13.1105 8 12.5 8C11.8895 8 11.7002 8.20736 11.62 8.34556ZM15 11H10V14H15V11Z" fill="currentColor"/>
</symbol>

<symbol id="sidebar">
  <path d="M2 4H5V3H2V4Z" fill="currentColor"/>
  <path d="M5 6H2V5H5V6Z" fill="currentColor"/>
  <path d="M2 8H5V7H2V8Z" fill="currentColor"/>
  <path fill-rule="evenodd" clip-rule="evenodd" d="M1 1C0.447715 1 0 1.44772 0 2V10C0 10.5523 0.447715 11 1 11H11C11.5523 11 12 10.5523 12 10V2C12 1.44772 11.5523 1 11 1H1ZM11 2H7V10H11V2ZM1 2H6V10H1L1 2Z" fill="currentColor"/>
</symbol>

<symbol id="direction-down">
  <path fill-rule="evenodd" clip-rule="evenodd" d="M8.00004 9.29294L4.35359 5.64649L3.64648 6.3536L8.00004 10.7072L12.3536 6.3536L11.6465 5.64649L8.00004 9.29294Z" fill="currentColor"/>
</symbol>

<symbol id="info">
  <path fill-rule="evenodd" d="M8 16a8 8 0 0 1-8-8 8 8 0 0 1 8-8 8 8 0 0 1 8 8 8 8 0 0 1-8 8zm0-9.667a1 1 0 1 0 0-2 1 1 0 0 0 0 2zM9 7.72S9.016 7 8 7s-1 .721-1 .721v3.565S6.987 12 8 12s1-.714 1-.714V7.72z"></path>
</symbol>

<symbol id="close">
  <path fill-rule="evenodd" d="M9.437 8l4.265 4.266a1.015 1.015 0 1 1-1.436 1.436L8.001 9.436l-4.266 4.266a1.016 1.016 0 0 1-1.437-1.437L6.564 8 2.298 3.733a1.015 1.015 0 0 1 1.436-1.436L8 6.563l4.265-4.265a1.016 1.016 0 0 1 1.437 1.437L9.437 8z"></path>
</symbol>

<symbol id="close-stroke">
  <path d="M8.70711 8.00001L13.3536 3.35356L12.6465 2.64645L8.00001 7.2929L3.35356 2.64645L2.64645 3.35356L7.2929 8.00001L2.64645 12.6465L3.35356 13.3536L8.00001 8.70711L12.6465 13.3536L13.3536 12.6465L8.70711 8.00001Z" fill="currentColor"/>
</symbol>

<symbol id="synced">
  <path fill-rule="evenodd" clip-rule="evenodd" d="M12 16C14.2091 16 16 14.2091 16 12C16 9.79086 14.2091 8 12 8C9.79086 8 8 9.79086 8 12C8 14.2091 9.79086 16 12 16ZM13.6465 10.1464L11.5 12.2929L10.3536 11.1464L9.64648 11.8535L11.5 13.7071L14.3536 10.8535L13.6465 10.1464Z" fill="currentColor"/>
  <path d="M8 1C5.23858 1 3 3.23858 3 6C3 6.09568 3.00268 6.19069 3.00797 6.28497L4.14648 5.14645L4.85359 5.85356L2.50004 8.20711L0.146484 5.85356L0.853591 5.14645L2.00739 6.30026C2.00248 6.20076 2 6.10065 2 6C2 2.68629 4.68629 0 8 0C9.65365 0 11.1518 0.669635 12.2366 1.75134L11.5305 2.45945C10.6255 1.55703 9.3783 1 8 1Z" fill="currentColor"/>
  <path d="M12.8835 7.07782C12.9598 6.73069 13 6.37004 13 6C13 5.90434 12.9973 5.80936 12.992 5.7151L11.8536 6.85355L11.1465 6.14644L13.5 3.79289L15.8536 6.14644L15.1465 6.85355L13.9926 5.69966C13.9975 5.79919 14 5.89932 14 6C14 6.46499 13.9471 6.91762 13.847 7.35222C13.5397 7.22997 13.2173 7.13734 12.8835 7.07782Z" fill="currentColor"/>
  <path d="M7.11645 10.9222C6.09237 10.7398 5.17648 10.2456 4.46949 9.54055L3.76339 10.2487C4.62482 11.1077 5.74699 11.7068 7.00067 11.9171C7.00622 11.5761 7.0459 11.2434 7.11645 10.9222Z" fill="currentColor"/>
</symbol>

<symbol id="notsync">
  <path d="M8.80903 9.51608L10.1465 10.8535L10.8536 10.1464L1.85359 1.14642L1.14648 1.85353L2.48394 3.19098C2.435 3.2521 2.38788 3.31422 2.34256 3.37727C1.82177 4.10186 1.54273 4.94561 1.50454 5.79737L0.853591 5.14642L0.146484 5.85353L2.00004 7.70708L3.85359 5.85353L3.14648 5.14642L2.50645 5.78646C2.54555 5.14214 2.76187 4.50729 3.15458 3.9609C3.16837 3.94171 3.18238 3.92263 3.19661 3.90366L8.09628 8.80333C6.72537 9.83116 4.77192 9.72167 3.52512 8.47487L2.81801 9.18197C4.45588 10.8198 7.04219 10.9312 8.80903 9.51608Z" fill="currentColor"/>
  <path d="M9.91972 8.21255C10.2724 7.58851 10.4642 6.89827 10.4954 6.20258L11.1464 6.85358L11.8535 6.14647L9.99996 4.29292L8.14641 6.14647L8.85352 6.85358L9.49356 6.21353C9.46742 6.64443 9.362 7.07116 9.17737 7.4702L9.91972 8.21255Z" fill="currentColor"/>
  <path d="M4.52985 2.82268C5.8238 2.22413 7.40802 2.45828 8.47486 3.52513L9.18197 2.81802C7.72029 1.35634 5.50325 1.11041 3.78739 2.08022L4.52985 2.82268Z" fill="currentColor"/>
</symbol>

<symbol id="success">
  <path d="M8.64648 3.64645L5.5 6.79291L3.85364 5.14645L3.14648 5.85356L5.5 8.20711L9.35364 4.35356L8.64648 3.64645Z" fill="currentColor"/>
  <path fill-rule="evenodd" clip-rule="evenodd" d="M12 6C12 9.31371 9.31372 12 6 12C2.68628 12 0 9.31371 0 6C0 2.68629 2.68628 0 6 0C9.31372 0 12 2.68629 12 6ZM11 6C11 8.76143 8.76147 11 6 11C3.23853 11 1 8.76143 1 6C1 3.23857 3.23853 1 6 1C8.76147 1 11 3.23857 11 6Z" fill="currentColor"/>
</symbol>

<symbol id="offline">
  <path fill-rule="evenodd" clip-rule="evenodd" d="M12.2858 13L13.6465 14.3607L14.3536 13.6536L3.35359 2.65356L2.64648 3.36067L4.73229 5.44648C4.29108 5.46376 3.91466 5.56612 3.59862 5.7439C3.09338 6.0281 2.80942 6.46727 2.6551 6.89163C2.50291 7.31017 2.46875 7.73335 2.46875 8.03906L2.46876 8.0462C2.21722 8.08396 1.89367 8.15402 1.5643 8.28576C1.20248 8.43049 0.810352 8.65905 0.506514 9.02366C0.195298 9.39712 0 9.88613 0 10.5C0 11.1139 0.195298 11.6029 0.506514 11.9763C0.810352 12.3409 1.20248 12.5695 1.5643 12.7142C1.92721 12.8594 2.28305 12.9297 2.54329 12.9644C2.67471 12.9819 2.78505 12.9908 2.86405 12.9953C2.90363 12.9975 2.93557 12.9987 2.9586 12.9993L2.98638 12.9999L2.99501 13L2.99797 13L3 13H12.2858ZM11.2858 12L5.85125 6.56544L5.4178 6.4932C4.74353 6.38082 4.33629 6.47631 4.08888 6.61548C3.84412 6.75315 3.69058 6.97023 3.5949 7.23337C3.49709 7.50233 3.46875 7.7979 3.46875 8.03906C3.46875 8.15709 3.47551 8.25608 3.48207 8.3241C3.48533 8.35797 3.48851 8.38378 3.49068 8.39999L3.49306 8.41678L3.49333 8.41858L3.59023 9H3.00114L2.99928 9.00002L2.98525 9.00031C2.97166 9.00067 2.94988 9.00145 2.9211 9.00309C2.86339 9.00639 2.77841 9.01314 2.67546 9.02686C2.46695 9.05467 2.19779 9.1094 1.9357 9.21424C1.67252 9.31951 1.43965 9.46595 1.27474 9.66384C1.1172 9.85288 1 10.1139 1 10.5C1 10.8861 1.1172 11.1471 1.27474 11.3362C1.43965 11.5341 1.67252 11.6805 1.9357 11.7858C2.19779 11.8906 2.46695 11.9453 2.67546 11.9731C2.77841 11.9869 2.86339 11.9936 2.9211 11.9969C2.94988 11.9986 2.97166 11.9993 2.98525 11.9997L2.99928 12L3.00036 12H11.2858ZM3 12.5V13C3 13 3 13 3 12.5Z" fill="currentColor"/>
  <path d="M14.9356 12.6841C14.906 12.701 14.8762 12.7171 14.8463 12.7322L14.0673 11.9532C14.194 11.9261 14.3214 11.8833 14.4394 11.8159C14.6952 11.6697 15 11.3526 15 10.5C15 9.70456 14.6187 9.22933 14.1178 8.92875C13.5907 8.61249 12.9363 8.5 12.5 8.5H11.8063L12.0257 7.84189C12.2371 7.20743 12.2374 6.22633 11.8088 5.42279C11.4028 4.66151 10.5809 4 9 4C7.97341 4 7.26932 4.30113 6.80204 4.68795L6.09259 3.9785C6.73078 3.41941 7.67549 3 9 3C10.9191 3 12.0972 3.83849 12.6912 4.95221C13.1394 5.79262 13.2362 6.75451 13.1179 7.54794C13.5949 7.61908 14.1418 7.77699 14.6322 8.07125C15.3813 8.52067 16 9.29544 16 10.5C16 11.6474 15.5548 12.3303 14.9356 12.6841Z" fill="currentColor"/>
</symbol>

<symbol id="online">
  <path d="M5.10986 3.45165C5.45777 2.36426 6.61119 1 9 1C10.9191 1 12.0972 1.83849 12.6912 2.95221C13.1394 3.79262 13.2362 4.75451 13.1179 5.54794C13.5949 5.61908 14.1418 5.77699 14.6322 6.07125C15.3813 6.52067 16 7.29544 16 8.5C16 8.66421 15.9909 8.8189 15.9734 8.96448C15.6767 8.57669 15.3245 8.2336 14.9287 7.94707C14.7959 7.47155 14.4898 7.15198 14.1178 6.92875C13.5907 6.61249 12.9363 6.5 12.5 6.5H11.8063L12.0257 5.84189C12.2371 5.20743 12.2374 4.22633 11.8088 3.42279C11.4028 2.66151 10.5809 2 9 2C6.77303 2 6.06366 3.41706 5.99729 4.05198L5.94204 4.58057L5.4178 4.4932C4.74353 4.38082 4.33629 4.47631 4.08888 4.61548C3.84412 4.75315 3.69058 4.97023 3.5949 5.23337C3.49709 5.50233 3.46875 5.7979 3.46875 6.03906C3.46875 6.15709 3.47551 6.25608 3.48207 6.3241C3.48533 6.35797 3.48851 6.38378 3.49068 6.39999L3.49306 6.41678L3.49333 6.41858L3.59023 7H3.00114L2.99928 7.00002L2.98525 7.00031C2.97166 7.00067 2.94988 7.00145 2.9211 7.00309C2.86339 7.00639 2.77841 7.01314 2.67546 7.02686C2.46695 7.05467 2.19779 7.1094 1.9357 7.21424C1.67252 7.31951 1.43965 7.46595 1.27474 7.66384C1.1172 7.85288 1 8.11387 1 8.5C1 8.88613 1.1172 9.14712 1.27474 9.33616C1.43965 9.53405 1.67252 9.68049 1.9357 9.78576C2.19779 9.8906 2.46695 9.94534 2.67546 9.97314C2.77841 9.98686 2.86339 9.99361 2.9211 9.99691C2.94988 9.99855 2.97166 9.99933 2.98525 9.99969L2.99928 9.99998L3.00036 10H7.41604C7.27732 10.3175 7.17062 10.6522 7.10002 11H3C3 11 3 11 3 10.5V11L2.99797 11L2.99501 11L2.98638 10.9999L2.9586 10.9993C2.93557 10.9987 2.90363 10.9975 2.86405 10.9953C2.78505 10.9908 2.67471 10.9819 2.54329 10.9644C2.28305 10.9297 1.92721 10.8594 1.5643 10.7142C1.20248 10.5695 0.810352 10.3409 0.506514 9.97634C0.195298 9.60288 0 9.11387 0 8.5C0 7.88613 0.195298 7.39712 0.506514 7.02366C0.810352 6.65905 1.20248 6.43049 1.5643 6.28576C1.89367 6.15402 2.21722 6.08396 2.46876 6.0462L2.46875 6.03906C2.46875 5.73335 2.50291 5.31017 2.6551 4.89163C2.80942 4.46727 3.09338 4.0281 3.59862 3.7439C4.00131 3.51739 4.502 3.4133 5.10986 3.45165Z" fill="currentColor"/>
  <path fill-rule="evenodd" clip-rule="evenodd" d="M16 12C16 14.2091 14.2091 16 12 16C9.79086 16 8 14.2091 8 12C8 9.79086 9.79086 8 12 8C14.2091 8 16 9.79086 16 12ZM11.5 12.2929L13.6465 10.1464L14.3536 10.8535L11.5 13.7071L9.64648 11.8535L10.3536 11.1464L11.5 12.2929Z" fill="currentColor"/>
</symbol>

<symbol id="dir-back">
  <path fill="currentColor" d="m3.914 7.5 4.167-4.167-.707-.707L2 8l5.374 5.374.707-.707L3.914 8.5H14v-1H3.914Z"/>
</symbol>
</svg>